# xmcd
#
# Track frame offsets:
#	150
#	14087
#	23075
#	36750
#	51637
#	63425
#	76850
#	91087
#	103112
#	113087
#	125537
#	138425
#
# Disc length: 2025 seconds
#
# Revision: 1
# Processed by: cddbd v1.5PL3 Copyright (c) Steve Scherf et al.
# Submitted via: CDex 1.50Beta5
#
DISCID=9e07e70c
DTITLE=Guapacha Con Chucho Valdes Y Su Combo - Guapacha En La Habana
DYEAR=1900
DGENRE=
TTITLE0=Guapacha El Mejor
TTITLE1=Oye Rebeca
TTITLE2=Melodia En Abril
TTITLE3=Pudiera Ser
TTITLE4=El Mozambiquero
TTITLE5=Que No Me Digas Na
TTITLE6=Retozon
TTITLE7=No Creo En Ti
TTITLE8=No Tienes Tema
TTITLE9=El Panzon
TTITLE10=Mi Existir
TTITLE11=Indestructible
EXTD=
EXTT0=
EXTT1=
EXTT2=
EXTT3=
EXTT4=
EXTT5=
EXTT6=
EXTT7=
EXTT8=
EXTT9=
EXTT10=
EXTT11=
PLAYORDER=
